<?xml version="1.0" encoding="utf-8"?>
<!-- Generator: Adobe Illustrator 23.0.1, SVG Export Plug-In . SVG Version: 6.00 Build 0)  -->
<svg version="1.1" id="Layer_1" xmlns="http://www.w3.org/2000/svg" xmlns:xlink="http://www.w3.org/1999/xlink" x="0px" y="0px"
	 viewBox="0 0 34 31.64" style="enable-background:new 0 0 34 31.64;" xml:space="preserve">
<g>
	<path class="st0" d="M19.97,14.57h0.07v0.81c0,0.37,0.3,0.67,0.67,0.67c0.37,0,0.67-0.3,0.67-0.67v-0.81h0.07
		c1.19,0,2.16-0.97,2.16-2.16V12c0-0.93-0.59-1.75-1.47-2.05l-2.42-0.81c-0.33-0.11-0.56-0.42-0.56-0.77V7.96
		c0-0.45,0.36-0.81,0.81-0.81h1.48c0.45,0,0.81,0.36,0.81,0.81V8.7c0,0.37,0.3,0.67,0.67,0.67s0.67-0.3,0.67-0.67V7.96
		c0-1.19-0.97-2.16-2.16-2.16h-0.07V4.99c0-0.37-0.3-0.67-0.67-0.67c-0.37,0-0.67,0.3-0.67,0.67v0.81h-0.07
		c-1.19,0-2.16,0.97-2.16,2.16v0.41c0,0.93,0.59,1.75,1.47,2.05l2.42,0.81c0.33,0.11,0.56,0.42,0.56,0.77v0.41
		c0,0.45-0.36,0.81-0.81,0.81h-1.48c-0.45,0-0.81-0.36-0.81-0.81v-0.74c0-0.37-0.3-0.67-0.67-0.67c-0.37,0-0.67,0.3-0.67,0.67v0.74
		C17.81,13.6,18.78,14.57,19.97,14.57z"/>
	<path class="st0" d="M33.87,13.5c-0.51-0.69-1.72-1.27-3.23-1.07c0.17-0.74,0.27-1.49,0.27-2.24C30.9,4.57,26.33,0,20.71,0
		S10.52,4.57,10.52,10.19c0,1.59,0.38,3.13,1.09,4.54c-1.16,0.09-2.45,0.92-3.25,1.66l-2.49,2.49l-1.01-1.01
		c-0.25-0.25-0.7-0.25-0.95,0L0.2,21.59c-0.26,0.26-0.26,0.69,0,0.95l8.91,8.91c0.13,0.13,0.3,0.2,0.48,0.2s0.34-0.07,0.48-0.2
		l3.71-3.71c0.26-0.26,0.26-0.69,0-0.95l-0.98-0.98c0.12-0.06,0.28-0.1,0.5-0.1h10.39c1.33,0,6.39-5.37,6.44-5.42
		c0.58-0.65,3.1-4.43,3.83-6.12C34.04,13.94,34.01,13.69,33.87,13.5z M20.71,1.34c4.88,0,8.84,3.97,8.84,8.84
		c0,0.93-0.15,1.85-0.45,2.76c-0.92,0.54-1.57,1.46-2.21,2.69l-2.54,1.35c-0.49-0.47-1.21-0.79-2.16-0.79l-2.57,0l-1.32,0
		c-0.13-0.04-0.47-0.3-0.7-0.48c-0.35-0.27-0.73-0.55-1.13-0.75l-0.15-0.11c-0.11-0.08-0.25-0.12-0.38-0.12h-0.2
		c-0.07-0.01-0.14-0.03-0.22-0.03h-2.4c-0.82-1.37-1.25-2.92-1.25-4.52C11.87,5.31,15.83,1.34,20.71,1.34z M9.58,30.02l-7.96-7.95
		l2.76-2.76l1.01,1.01c0,0,0,0,0,0c0,0,0,0,0,0l5.94,5.94c0,0,0,0,0,0c0,0,0,0,0,0l1.01,1.01L9.58,30.02z M29.12,19.39
		c-0.9,1.01-4.75,4.74-5.44,4.97H13.29c-0.71,0-1.16,0.23-1.48,0.47l-4.99-4.99l2.48-2.48c0.7-0.65,1.78-1.3,2.51-1.3h0.82
		c0.05,0.01,0.09,0.03,0.14,0.03h2.89c0.04,0.01,0.07,0.01,0.11,0.03l1.86,1.3c0.11,0.08,0.25,0.12,0.38,0.12l0.26,0c0,0,0,0,0.01,0
		h0.41l2.72,0.01c0,0,0,0,0,0c0.01,0,0.02-0.01,0.04-0.01h0.75c1.07,0,1.55,0.59,1.55,1.18c0,0.3-0.12,0.58-0.34,0.79
		c-0.28,0.26-0.7,0.4-1.21,0.4h-5.94c-0.37,0-0.67,0.3-0.67,0.67s0.3,0.67,0.67,0.67h5.94c1.09,0,1.76-0.41,2.13-0.76
		c0.5-0.47,0.77-1.09,0.77-1.77c0-0.19-0.03-0.38-0.08-0.57l2.69-1.43c0.12-0.06,0.22-0.16,0.28-0.29c0.88-1.71,1.54-2.39,2.52-2.62
		c0.87-0.2,1.59-0.02,2,0.24C31.67,15.74,29.59,18.86,29.12,19.39z"/>
	<path class="st0" d="M4.86,21.59c-0.26-0.26-0.69-0.26-0.95,0c-0.26,0.26-0.26,0.69,0,0.95l1.48,1.48c0.13,0.13,0.3,0.2,0.48,0.2
		s0.34-0.07,0.48-0.2c0.26-0.26,0.26-0.69,0-0.95L4.86,21.59z"/>
</g>
</svg>
